<mxfile host="app.diagrams.net" modified="2023-10-10T19:45:00.385Z" agent="Mozilla/5.0 (Windows NT 10.0; Win64; x64) AppleWebKit/537.36 (KHTML, like Gecko) Chrome/117.0.0.0 Safari/537.36" etag="wRgcMfAtoTwyzEy3PWCE" version="21.5.2" type="google">
  <diagram id="C5RBs43oDa-KdzZeNtuy" name="Page-1">
    <mxGraphModel grid="1" page="1" gridSize="10" guides="1" tooltips="1" connect="1" arrows="1" fold="1" pageScale="1" pageWidth="827" pageHeight="1169" math="0" shadow="0">
      <root>
        <mxCell id="WIyWlLk6GJQsqaUBKTNV-0" />
        <mxCell id="WIyWlLk6GJQsqaUBKTNV-1" parent="WIyWlLk6GJQsqaUBKTNV-0" />
        <mxCell id="xv89x6dA8_eaqSwkWSTg-4" value="" style="edgeStyle=orthogonalEdgeStyle;rounded=0;orthogonalLoop=1;jettySize=auto;html=1;" edge="1" parent="WIyWlLk6GJQsqaUBKTNV-1" source="xv89x6dA8_eaqSwkWSTg-1" target="xv89x6dA8_eaqSwkWSTg-3">
          <mxGeometry relative="1" as="geometry" />
        </mxCell>
        <mxCell id="xv89x6dA8_eaqSwkWSTg-1" value="start" style="ellipse;whiteSpace=wrap;html=1;" vertex="1" parent="WIyWlLk6GJQsqaUBKTNV-1">
          <mxGeometry x="110" y="59" width="120" height="50" as="geometry" />
        </mxCell>
        <mxCell id="xv89x6dA8_eaqSwkWSTg-2" style="edgeStyle=orthogonalEdgeStyle;rounded=0;orthogonalLoop=1;jettySize=auto;html=1;exitX=0.5;exitY=1;exitDx=0;exitDy=0;" edge="1" parent="WIyWlLk6GJQsqaUBKTNV-1" source="xv89x6dA8_eaqSwkWSTg-1" target="xv89x6dA8_eaqSwkWSTg-1">
          <mxGeometry relative="1" as="geometry" />
        </mxCell>
        <mxCell id="xv89x6dA8_eaqSwkWSTg-6" value="" style="edgeStyle=orthogonalEdgeStyle;rounded=0;orthogonalLoop=1;jettySize=auto;html=1;" edge="1" parent="WIyWlLk6GJQsqaUBKTNV-1" source="xv89x6dA8_eaqSwkWSTg-3" target="xv89x6dA8_eaqSwkWSTg-5">
          <mxGeometry relative="1" as="geometry" />
        </mxCell>
        <mxCell id="xv89x6dA8_eaqSwkWSTg-20" value="" style="edgeStyle=orthogonalEdgeStyle;rounded=0;orthogonalLoop=1;jettySize=auto;html=1;" edge="1" parent="WIyWlLk6GJQsqaUBKTNV-1" source="xv89x6dA8_eaqSwkWSTg-3" target="xv89x6dA8_eaqSwkWSTg-19">
          <mxGeometry relative="1" as="geometry" />
        </mxCell>
        <mxCell id="xv89x6dA8_eaqSwkWSTg-3" value="User Registration" style="whiteSpace=wrap;html=1;" vertex="1" parent="WIyWlLk6GJQsqaUBKTNV-1">
          <mxGeometry x="110" y="129" width="120" height="40" as="geometry" />
        </mxCell>
        <mxCell id="xv89x6dA8_eaqSwkWSTg-8" value="" style="edgeStyle=orthogonalEdgeStyle;rounded=0;orthogonalLoop=1;jettySize=auto;html=1;" edge="1" parent="WIyWlLk6GJQsqaUBKTNV-1" source="xv89x6dA8_eaqSwkWSTg-5" target="xv89x6dA8_eaqSwkWSTg-7">
          <mxGeometry relative="1" as="geometry" />
        </mxCell>
        <mxCell id="xv89x6dA8_eaqSwkWSTg-5" value="User login" style="whiteSpace=wrap;html=1;" vertex="1" parent="WIyWlLk6GJQsqaUBKTNV-1">
          <mxGeometry x="110" y="189" width="120" height="40" as="geometry" />
        </mxCell>
        <mxCell id="xv89x6dA8_eaqSwkWSTg-10" value="" style="edgeStyle=orthogonalEdgeStyle;rounded=0;orthogonalLoop=1;jettySize=auto;html=1;" edge="1" parent="WIyWlLk6GJQsqaUBKTNV-1" source="xv89x6dA8_eaqSwkWSTg-7" target="xv89x6dA8_eaqSwkWSTg-9">
          <mxGeometry relative="1" as="geometry" />
        </mxCell>
        <mxCell id="xv89x6dA8_eaqSwkWSTg-31" value="" style="edgeStyle=orthogonalEdgeStyle;rounded=0;orthogonalLoop=1;jettySize=auto;html=1;" edge="1" parent="WIyWlLk6GJQsqaUBKTNV-1" source="xv89x6dA8_eaqSwkWSTg-7" target="xv89x6dA8_eaqSwkWSTg-30">
          <mxGeometry relative="1" as="geometry" />
        </mxCell>
        <mxCell id="xv89x6dA8_eaqSwkWSTg-7" value="Dashboard" style="whiteSpace=wrap;html=1;" vertex="1" parent="WIyWlLk6GJQsqaUBKTNV-1">
          <mxGeometry x="110" y="249" width="120" height="40" as="geometry" />
        </mxCell>
        <mxCell id="xv89x6dA8_eaqSwkWSTg-12" value="" style="edgeStyle=orthogonalEdgeStyle;rounded=0;orthogonalLoop=1;jettySize=auto;html=1;" edge="1" parent="WIyWlLk6GJQsqaUBKTNV-1" source="xv89x6dA8_eaqSwkWSTg-9" target="xv89x6dA8_eaqSwkWSTg-11">
          <mxGeometry relative="1" as="geometry" />
        </mxCell>
        <mxCell id="xv89x6dA8_eaqSwkWSTg-9" value="View progress" style="whiteSpace=wrap;html=1;" vertex="1" parent="WIyWlLk6GJQsqaUBKTNV-1">
          <mxGeometry x="110" y="309" width="120" height="30" as="geometry" />
        </mxCell>
        <mxCell id="xv89x6dA8_eaqSwkWSTg-14" value="" style="edgeStyle=orthogonalEdgeStyle;rounded=0;orthogonalLoop=1;jettySize=auto;html=1;" edge="1" parent="WIyWlLk6GJQsqaUBKTNV-1" source="xv89x6dA8_eaqSwkWSTg-11" target="xv89x6dA8_eaqSwkWSTg-13">
          <mxGeometry relative="1" as="geometry" />
        </mxCell>
        <mxCell id="xv89x6dA8_eaqSwkWSTg-11" value="Admin panel" style="whiteSpace=wrap;html=1;" vertex="1" parent="WIyWlLk6GJQsqaUBKTNV-1">
          <mxGeometry x="110" y="359" width="120" height="40" as="geometry" />
        </mxCell>
        <mxCell id="xv89x6dA8_eaqSwkWSTg-16" value="" style="edgeStyle=orthogonalEdgeStyle;rounded=0;orthogonalLoop=1;jettySize=auto;html=1;" edge="1" parent="WIyWlLk6GJQsqaUBKTNV-1" source="xv89x6dA8_eaqSwkWSTg-13" target="xv89x6dA8_eaqSwkWSTg-15">
          <mxGeometry relative="1" as="geometry" />
        </mxCell>
        <mxCell id="xv89x6dA8_eaqSwkWSTg-13" value="Achievements" style="whiteSpace=wrap;html=1;" vertex="1" parent="WIyWlLk6GJQsqaUBKTNV-1">
          <mxGeometry x="110" y="419" width="120" height="40" as="geometry" />
        </mxCell>
        <mxCell id="xv89x6dA8_eaqSwkWSTg-18" value="" style="edgeStyle=orthogonalEdgeStyle;rounded=0;orthogonalLoop=1;jettySize=auto;html=1;" edge="1" parent="WIyWlLk6GJQsqaUBKTNV-1" source="xv89x6dA8_eaqSwkWSTg-15" target="xv89x6dA8_eaqSwkWSTg-17">
          <mxGeometry relative="1" as="geometry" />
        </mxCell>
        <mxCell id="xv89x6dA8_eaqSwkWSTg-15" value="Logout" style="whiteSpace=wrap;html=1;" vertex="1" parent="WIyWlLk6GJQsqaUBKTNV-1">
          <mxGeometry x="110" y="479" width="120" height="40" as="geometry" />
        </mxCell>
        <mxCell id="xv89x6dA8_eaqSwkWSTg-17" value="End" style="ellipse;whiteSpace=wrap;html=1;" vertex="1" parent="WIyWlLk6GJQsqaUBKTNV-1">
          <mxGeometry x="110" y="559" width="120" height="50" as="geometry" />
        </mxCell>
        <mxCell id="xv89x6dA8_eaqSwkWSTg-22" value="" style="edgeStyle=orthogonalEdgeStyle;rounded=0;orthogonalLoop=1;jettySize=auto;html=1;" edge="1" parent="WIyWlLk6GJQsqaUBKTNV-1" source="xv89x6dA8_eaqSwkWSTg-19" target="xv89x6dA8_eaqSwkWSTg-21">
          <mxGeometry relative="1" as="geometry" />
        </mxCell>
        <mxCell id="xv89x6dA8_eaqSwkWSTg-25" value="" style="edgeStyle=orthogonalEdgeStyle;rounded=0;orthogonalLoop=1;jettySize=auto;html=1;" edge="1" parent="WIyWlLk6GJQsqaUBKTNV-1" source="xv89x6dA8_eaqSwkWSTg-19" target="xv89x6dA8_eaqSwkWSTg-24">
          <mxGeometry relative="1" as="geometry" />
        </mxCell>
        <mxCell id="xv89x6dA8_eaqSwkWSTg-19" value="Valid credentials?" style="rhombus;whiteSpace=wrap;html=1;" vertex="1" parent="WIyWlLk6GJQsqaUBKTNV-1">
          <mxGeometry x="280" y="109" width="120" height="60" as="geometry" />
        </mxCell>
        <mxCell id="xv89x6dA8_eaqSwkWSTg-23" value="" style="edgeStyle=orthogonalEdgeStyle;rounded=0;orthogonalLoop=1;jettySize=auto;html=1;" edge="1" parent="WIyWlLk6GJQsqaUBKTNV-1" source="xv89x6dA8_eaqSwkWSTg-21" target="xv89x6dA8_eaqSwkWSTg-5">
          <mxGeometry relative="1" as="geometry" />
        </mxCell>
        <mxCell id="xv89x6dA8_eaqSwkWSTg-21" value="yes" style="whiteSpace=wrap;html=1;" vertex="1" parent="WIyWlLk6GJQsqaUBKTNV-1">
          <mxGeometry x="280" y="189" width="120" height="40" as="geometry" />
        </mxCell>
        <mxCell id="xv89x6dA8_eaqSwkWSTg-27" style="edgeStyle=orthogonalEdgeStyle;rounded=0;orthogonalLoop=1;jettySize=auto;html=1;" edge="1" parent="WIyWlLk6GJQsqaUBKTNV-1" source="xv89x6dA8_eaqSwkWSTg-24">
          <mxGeometry relative="1" as="geometry">
            <mxPoint x="220" y="119" as="targetPoint" />
            <Array as="points">
              <mxPoint x="540" y="49" />
              <mxPoint x="290" y="49" />
              <mxPoint x="290" y="110" />
              <mxPoint x="220" y="110" />
            </Array>
          </mxGeometry>
        </mxCell>
        <mxCell id="xv89x6dA8_eaqSwkWSTg-24" value="No" style="whiteSpace=wrap;html=1;" vertex="1" parent="WIyWlLk6GJQsqaUBKTNV-1">
          <mxGeometry x="480" y="109" width="120" height="50" as="geometry" />
        </mxCell>
        <mxCell id="xv89x6dA8_eaqSwkWSTg-33" value="" style="edgeStyle=orthogonalEdgeStyle;rounded=0;orthogonalLoop=1;jettySize=auto;html=1;" edge="1" parent="WIyWlLk6GJQsqaUBKTNV-1" source="xv89x6dA8_eaqSwkWSTg-30" target="xv89x6dA8_eaqSwkWSTg-32">
          <mxGeometry relative="1" as="geometry" />
        </mxCell>
        <mxCell id="xv89x6dA8_eaqSwkWSTg-30" value="Tack workout" style="shape=parallelogram;perimeter=parallelogramPerimeter;whiteSpace=wrap;html=1;fixedSize=1;" vertex="1" parent="WIyWlLk6GJQsqaUBKTNV-1">
          <mxGeometry x="310" y="259" width="120" height="40" as="geometry" />
        </mxCell>
        <mxCell id="xv89x6dA8_eaqSwkWSTg-35" style="edgeStyle=orthogonalEdgeStyle;rounded=0;orthogonalLoop=1;jettySize=auto;html=1;entryX=1;entryY=0.75;entryDx=0;entryDy=0;" edge="1" parent="WIyWlLk6GJQsqaUBKTNV-1" source="xv89x6dA8_eaqSwkWSTg-32" target="xv89x6dA8_eaqSwkWSTg-13">
          <mxGeometry relative="1" as="geometry">
            <mxPoint x="290" y="449" as="targetPoint" />
          </mxGeometry>
        </mxCell>
        <mxCell id="xv89x6dA8_eaqSwkWSTg-32" value="Set goals" style="shape=parallelogram;perimeter=parallelogramPerimeter;whiteSpace=wrap;html=1;fixedSize=1;" vertex="1" parent="WIyWlLk6GJQsqaUBKTNV-1">
          <mxGeometry x="310" y="329" width="120" height="40" as="geometry" />
        </mxCell>
      </root>
    </mxGraphModel>
  </diagram>
</mxfile>
